# 3ds Max Wavefront OBJ Exporter v0.97b - (c)2007 guruware
# File Created: 04.01.2016 20:18:38

#
# object Cylinder001
#

v  1.0000 0.0000 -0.0000
v  0.9397 0.0000 -0.3420
v  0.9397 0.1000 -0.3420
v  1.0000 0.1000 -0.0000
v  0.7660 0.0000 -0.6428
v  0.7660 0.1000 -0.6428
v  0.5000 0.0000 -0.8660
v  0.5000 0.1000 -0.8660
v  0.1736 0.0000 -0.9848
v  0.1736 0.1000 -0.9848
v  -0.1736 0.0000 -0.9848
v  -0.1736 0.1000 -0.9848
v  -0.5000 0.0000 -0.8660
v  -0.5000 0.1000 -0.8660
v  -0.7660 0.0000 -0.6428
v  -0.7660 0.1000 -0.6428
v  -0.9397 0.0000 -0.3420
v  -0.9397 0.1000 -0.3420
v  -1.0000 0.0000 -0.0000
v  -1.0000 0.1000 -0.0000
v  -0.9397 0.0000 0.3420
v  -0.9397 0.1000 0.3420
v  -0.7660 0.0000 0.6428
v  -0.7660 0.1000 0.6428
v  -0.5000 0.0000 0.8660
v  -0.5000 0.1000 0.8660
v  -0.1736 0.0000 0.9848
v  -0.1736 0.1000 0.9848
v  0.1736 0.0000 0.9848
v  0.1736 0.1000 0.9848
v  0.5000 0.0000 0.8660
v  0.5000 0.1000 0.8660
v  0.7660 0.0000 0.6428
v  0.7660 0.1000 0.6428
v  0.9397 0.0000 0.3420
v  0.9397 0.1000 0.3420
v  0.0000 0.0000 -0.0000
v  0.1501 0.1000 -0.0546
v  0.1598 0.1000 0.0000
v  0.1224 0.1000 -0.1027
v  0.0799 0.1000 -0.1384
v  0.0277 0.1000 -0.1573
v  -0.0277 0.1000 -0.1573
v  -0.0799 0.1000 -0.1384
v  -0.1224 0.1000 -0.1027
v  -0.1501 0.1000 -0.0546
v  -0.1598 0.1000 -0.0000
v  -0.1501 0.1000 0.0546
v  -0.1224 0.1000 0.1027
v  -0.0799 0.1000 0.1384
v  -0.0277 0.1000 0.1573
v  0.0277 0.1000 0.1573
v  0.0799 0.1000 0.1384
v  0.1224 0.1000 0.1027
v  0.1501 0.1000 0.0546
v  0.1501 4.0195 -0.0546
v  0.1598 4.0195 0.0000
v  0.1224 4.0195 -0.1027
v  0.0799 4.0195 -0.1384
v  0.0277 4.0195 -0.1573
v  -0.0277 4.0195 -0.1573
v  -0.0799 4.0195 -0.1384
v  -0.1224 4.0195 -0.1027
v  -0.1501 4.0195 -0.0546
v  -0.1598 4.0195 -0.0000
v  -0.1501 4.0195 0.0546
v  -0.1224 4.0195 0.1027
v  -0.0799 4.0195 0.1384
v  -0.0277 4.0195 0.1573
v  0.0277 4.0195 0.1573
v  0.0799 4.0195 0.1384
v  0.1224 4.0195 0.1027
v  0.1501 4.0195 0.0546
v  -0.0000 4.0195 0.0000
v  -0.0000 3.8869 -0.0519
v  2.4661 3.2675 -0.0519
v  -0.0000 2.6482 -0.0519
v  -0.0000 3.8869 0.0519
v  2.4661 3.2675 0.0519
v  -0.0000 2.6482 0.0519
# 80 vertices

vn 1.0000 0.0000 0.0000
vn 0.9397 0.0000 -0.3420
vn 0.7660 0.0000 -0.6428
vn 0.5000 0.0000 -0.8660
vn 0.1736 0.0000 -0.9848
vn -0.1736 0.0000 -0.9848
vn -0.5000 0.0000 -0.8660
vn -0.7660 0.0000 -0.6428
vn -0.9397 0.0000 -0.3420
vn -1.0000 0.0000 -0.0000
vn -0.9397 0.0000 0.3420
vn -0.7660 0.0000 0.6428
vn -0.5000 0.0000 0.8660
vn -0.1736 0.0000 0.9848
vn 0.1736 0.0000 0.9848
vn 0.5000 0.0000 0.8660
vn 0.7660 0.0000 0.6428
vn 0.9397 0.0000 0.3420
vn 0.0000 -1.0000 -0.0000
vn 0.0000 1.0000 0.0000
vn 0.0000 1.0000 -0.0000
vn -0.0000 1.0000 -0.0000
vn -0.0000 1.0000 0.0000
vn 0.9848 0.0000 -0.1736
vn 0.8660 0.0000 -0.5000
vn 0.6428 0.0000 -0.7660
vn 0.3420 0.0000 -0.9397
vn -0.0000 0.0000 -1.0000
vn -0.3420 0.0000 -0.9397
vn -0.6428 0.0000 -0.7660
vn -0.8660 0.0000 -0.5000
vn -0.9848 0.0000 -0.1736
vn -0.9848 0.0000 0.1736
vn -0.8660 0.0000 0.5000
vn -0.6428 0.0000 0.7660
vn -0.3420 0.0000 0.9397
vn 0.0000 0.0000 1.0000
vn 0.3420 0.0000 0.9397
vn 0.6428 0.0000 0.7660
vn 0.8660 0.0000 0.5000
vn 0.9848 0.0000 0.1736
vn 0.0000 0.0000 -1.0000
vn 0.2436 0.9699 -0.0000
vn 0.2436 -0.9699 -0.0000
vn 0.0000 -0.0000 1.0000
# 45 vertex normals

vt 0.8796 0.1303 0.0000
vt 0.8796 0.1997 0.0000
vt 0.8593 0.1997 0.0000
vt 0.8593 0.1303 0.0000
vt 0.8796 0.2606 0.0000
vt 0.8593 0.2606 0.0000
vt 0.8999 0.0000 0.0000
vt 0.8999 0.0539 0.0000
vt 0.8796 0.0539 0.0000
vt 0.8796 0.0000 0.0000
vt 0.8999 0.1201 0.0000
vt 0.8796 0.1201 0.0000
vt 0.8999 0.1905 0.0000
vt 0.8796 0.1905 0.0000
vt 0.8999 0.2567 0.0000
vt 0.8796 0.2567 0.0000
vt 0.6707 0.7947 0.0000
vt 0.6707 0.8651 0.0000
vt 0.6505 0.8651 0.0000
vt 0.6505 0.7947 0.0000
vt 0.8796 0.3216 0.0000
vt 0.8593 0.3216 0.0000
vt 0.8796 0.3910 0.0000
vt 0.8593 0.3910 0.0000
vt 0.8796 0.4603 0.0000
vt 0.8593 0.4603 0.0000
vt 0.8796 0.5213 0.0000
vt 0.8593 0.5213 0.0000
vt 0.7124 0.7947 0.0000
vt 0.7124 0.8651 0.0000
vt 0.6921 0.8651 0.0000
vt 0.6921 0.7947 0.0000
vt 0.8796 0.5875 0.0000
vt 0.8593 0.5875 0.0000
vt 0.8796 0.6579 0.0000
vt 0.8593 0.6579 0.0000
vt 0.8796 0.7240 0.0000
vt 0.8593 0.7240 0.0000
vt 0.8796 0.7780 0.0000
vt 0.8593 0.7780 0.0000
vt 0.8796 0.0610 0.0000
vt 0.8593 0.0610 0.0000
vt 0.8593 0.0000 0.0000
vt 0.2690 0.3933 0.0000
vt 0.1997 0.4055 0.0000
vt 0.1997 0.2027 0.0000
vt 0.3300 0.3581 0.0000
vt 0.3753 0.3041 0.0000
vt 0.3993 0.2380 0.0000
vt 0.3993 0.1675 0.0000
vt 0.3753 0.1014 0.0000
vt 0.3300 0.0474 0.0000
vt 0.2690 0.0122 0.0000
vt 0.1997 0.0000 0.0000
vt 0.1303 0.0122 0.0000
vt 0.0693 0.0474 0.0000
vt 0.0241 0.1014 0.0000
vt 0.0000 0.1675 0.0000
vt 0.0000 0.2380 0.0000
vt 0.0241 0.3041 0.0000
vt 0.0693 0.3581 0.0000
vt 0.1303 0.3933 0.0000
vt 0.1997 0.8110 0.0000
vt 0.1303 0.7988 0.0000
vt 0.1886 0.6387 0.0000
vt 0.1997 0.6406 0.0000
vt 0.0693 0.7636 0.0000
vt 0.1788 0.6331 0.0000
vt 0.0241 0.7096 0.0000
vt 0.1716 0.6244 0.0000
vt 0.0000 0.6434 0.0000
vt 0.1678 0.6139 0.0000
vt 0.0000 0.5730 0.0000
vt 0.1678 0.6026 0.0000
vt 0.0241 0.5069 0.0000
vt 0.1716 0.5920 0.0000
vt 0.0693 0.4529 0.0000
vt 0.1788 0.5834 0.0000
vt 0.1303 0.4177 0.0000
vt 0.1886 0.5778 0.0000
vt 0.1997 0.5758 0.0000
vt 0.2690 0.4177 0.0000
vt 0.2107 0.5778 0.0000
vt 0.3300 0.4529 0.0000
vt 0.2205 0.5834 0.0000
vt 0.3753 0.5069 0.0000
vt 0.2277 0.5920 0.0000
vt 0.3993 0.5730 0.0000
vt 0.2316 0.6026 0.0000
vt 0.3993 0.6434 0.0000
vt 0.2316 0.6139 0.0000
vt 0.3753 0.7096 0.0000
vt 0.2277 0.6244 0.0000
vt 0.3300 0.7636 0.0000
vt 0.2205 0.6331 0.0000
vt 0.2690 0.7988 0.0000
vt 0.2107 0.6387 0.0000
vt 0.6713 0.7947 0.0000
vt 0.6602 0.7947 0.0000
vt 0.6602 0.0000 0.0000
vt 0.6713 0.0000 0.0000
vt 0.6505 0.0000 0.0000
vt 0.7748 0.7947 0.0000
vt 0.7661 0.7947 0.0000
vt 0.7661 0.0000 0.0000
vt 0.7748 0.0000 0.0000
vt 0.7556 0.7947 0.0000
vt 0.7556 0.0000 0.0000
vt 0.7443 0.7947 0.0000
vt 0.7443 0.0000 0.0000
vt 0.7338 0.7947 0.0000
vt 0.7338 0.0000 0.0000
vt 0.8593 0.7947 0.0000
vt 0.8481 0.7947 0.0000
vt 0.8481 0.0000 0.0000
vt 0.7240 0.7947 0.0000
vt 0.7240 0.0000 0.0000
vt 0.7129 0.7947 0.0000
vt 0.7129 0.0000 0.0000
vt 0.7019 0.7947 0.0000
vt 0.7019 0.0000 0.0000
vt 0.6921 0.0000 0.0000
vt 0.8368 0.7947 0.0000
vt 0.8368 0.0000 0.0000
vt 0.8158 0.7947 0.0000
vt 0.8052 0.7947 0.0000
vt 0.8052 0.0000 0.0000
vt 0.8158 0.0000 0.0000
vt 0.7940 0.7947 0.0000
vt 0.7940 0.0000 0.0000
vt 0.7834 0.7947 0.0000
vt 0.7834 0.0000 0.0000
vt 0.6824 0.7947 0.0000
vt 0.6824 0.0000 0.0000
vt 0.0319 0.8758 0.0000
vt 0.0208 0.8738 0.0000
vt 0.0319 0.8434 0.0000
vt 0.0111 0.8682 0.0000
vt 0.0038 0.8596 0.0000
vt 0.0000 0.8490 0.0000
vt 0.0000 0.8378 0.0000
vt 0.0038 0.8272 0.0000
vt 0.0111 0.8186 0.0000
vt 0.0208 0.8129 0.0000
vt 0.0319 0.8110 0.0000
vt 0.0430 0.8129 0.0000
vt 0.0527 0.8186 0.0000
vt 0.0599 0.8272 0.0000
vt 0.0638 0.8378 0.0000
vt 0.0638 0.8490 0.0000
vt 0.0599 0.8596 0.0000
vt 0.0527 0.8682 0.0000
vt 0.0430 0.8738 0.0000
vt 0.3993 0.5000 0.0000
vt 0.5249 0.0000 0.0000
vt 0.6505 0.5000 0.0000
vt 0.8368 0.5000 0.0000
vt 0.8158 0.5000 0.0000
vt 0.8368 1.0000 0.0000
vt 0.8158 1.0000 0.0000
vt 0.5249 1.0000 0.0000
# 161 texture coords

g Cylinder001
s 8
f 1/1/1 2/2/2 3/3/2 4/4/1 
f 2/2/2 5/5/3 6/6/3 3/3/2 
f 5/7/3 7/8/4 8/9/4 6/10/3 
f 7/8/4 9/11/5 10/12/5 8/9/4 
f 9/11/5 11/13/6 12/14/6 10/12/5 
f 11/13/6 13/15/7 14/16/7 12/14/6 
f 13/17/7 15/18/8 16/19/8 14/20/7 
f 15/5/8 17/21/9 18/22/9 16/6/8 
f 17/21/9 19/23/10 20/24/10 18/22/9 
f 19/23/10 21/25/11 22/26/11 20/24/10 
f 21/25/11 23/27/12 24/28/12 22/26/11 
f 23/29/12 25/30/13 26/31/13 24/32/12 
f 25/27/13 27/33/14 28/34/14 26/28/13 
f 27/33/14 29/35/15 30/36/15 28/34/14 
f 29/35/15 31/37/16 32/38/16 30/36/15 
f 31/37/16 33/39/17 34/40/17 32/38/16 
f 33/10/17 35/41/18 36/42/18 34/43/17 
f 35/41/18 1/1/1 4/4/1 36/42/18 
s 1
f 2/44/19 1/45/19 37/46/19 
f 5/47/19 2/44/19 37/46/19 
f 7/48/19 5/47/19 37/46/19 
f 9/49/19 7/48/19 37/46/19 
f 11/50/19 9/49/19 37/46/19 
f 13/51/19 11/50/19 37/46/19 
f 15/52/19 13/51/19 37/46/19 
f 17/53/19 15/52/19 37/46/19 
f 19/54/19 17/53/19 37/46/19 
f 21/55/19 19/54/19 37/46/19 
f 23/56/19 21/55/19 37/46/19 
f 25/57/19 23/56/19 37/46/19 
f 27/58/19 25/57/19 37/46/19 
f 29/59/19 27/58/19 37/46/19 
f 31/60/19 29/59/19 37/46/19 
f 33/61/19 31/60/19 37/46/19 
f 35/62/19 33/61/19 37/46/19 
f 1/45/19 35/62/19 37/46/19 
f 4/63/20 3/64/21 38/65/21 39/66/20 
f 3/64/21 6/67/21 40/68/21 38/65/21 
f 6/67/21 8/69/21 41/70/21 40/68/21 
f 8/69/21 10/71/21 42/72/21 41/70/21 
f 10/71/21 12/73/22 43/74/22 42/72/21 
f 12/73/22 14/75/22 44/76/22 43/74/22 
f 14/75/22 16/77/22 45/78/22 44/76/22 
f 16/77/22 18/79/22 46/80/22 45/78/22 
f 18/79/22 20/45/22 47/81/22 46/80/22 
f 20/45/22 22/82/23 48/83/23 47/81/22 
f 22/82/23 24/84/23 49/85/23 48/83/23 
f 24/84/23 26/86/23 50/87/23 49/85/23 
f 26/86/23 28/88/23 51/89/23 50/87/23 
f 28/88/23 30/90/20 52/91/20 51/89/23 
f 30/90/20 32/92/20 53/93/20 52/91/20 
f 32/92/20 34/94/20 54/95/20 53/93/20 
f 34/94/20 36/96/20 55/97/20 54/95/20 
f 36/96/20 4/63/20 39/66/20 55/97/20 
s off
f 39/98/24 38/99/24 56/100/24 57/101/24 
f 38/99/25 40/20/25 58/102/25 56/100/25 
f 40/103/26 41/104/26 59/105/26 58/106/26 
f 41/104/27 42/107/27 60/108/27 59/105/27 
f 42/107/28 43/109/28 61/110/28 60/108/28 
f 43/109/29 44/111/29 62/112/29 61/110/29 
f 44/113/30 45/114/30 63/115/30 62/43/30 
f 45/111/31 46/116/31 64/117/31 63/112/31 
f 46/116/32 47/118/32 65/119/32 64/117/32 
f 47/118/33 48/120/33 66/121/33 65/119/33 
f 48/120/34 49/32/34 67/122/34 66/121/34 
f 49/114/35 50/123/35 68/124/35 67/115/35 
f 50/125/36 51/126/36 69/127/36 68/128/36 
f 51/126/37 52/129/37 70/130/37 69/127/37 
f 52/129/38 53/131/38 71/132/38 70/130/38 
f 53/131/39 54/103/39 72/106/39 71/132/39 
f 54/32/40 55/133/40 73/134/40 72/122/40 
f 55/133/41 39/98/41 57/101/41 73/134/41 
f 57/135/21 56/136/21 74/137/21 
f 56/136/21 58/138/21 74/137/21 
f 58/138/21 59/139/21 74/137/21 
f 59/139/21 60/140/21 74/137/21 
f 60/140/21 61/141/21 74/137/21 
f 61/141/21 62/142/21 74/137/21 
f 62/142/21 63/143/21 74/137/21 
f 63/143/21 64/144/21 74/137/21 
f 64/144/21 65/145/21 74/137/21 
f 65/145/21 66/146/21 74/137/21 
f 66/146/21 67/147/21 74/137/21 
f 67/147/21 68/148/21 74/137/21 
f 68/148/21 69/149/21 74/137/21 
f 69/149/21 70/150/21 74/137/21 
f 70/150/21 71/151/21 74/137/21 
f 71/151/21 72/152/21 74/137/21 
f 72/152/21 73/153/21 74/137/21 
f 73/153/21 57/135/21 74/137/21 
s 1
f 75/154/42 76/155/42 77/156/42 
s off
f 75/128/43 78/124/43 79/157/43 76/158/43 
f 76/159/44 79/160/44 80/158/44 77/157/44 
f 78/154/45 80/156/45 79/161/45 
# 56 polygons - 38 triangles

